# xmcd CD database file
#
# Track frame offsets:
#	150
#	28047
#	54952
#	82332
#	109722
#	129180
#	165247
#	193462
#	236302
#	267265
#	289312
#
# Disc length: 4051 seconds
#
# Revision: 1
# Processed by: cddbd v1.5.2PL0 Copyright (c) Steve Scherf et al.
# Submitted via: CDex 1.51
#
DISCID=940fd10b
DTITLE=Roon - Marc van - En blanc et noir
DYEAR=2006
DGENRE=jazz
TTITLE0=The art of happiness
TTITLE1=Blan lives
TTITLE2=Cinema paradiso
TTITLE3=Radio-a-haman
TTITLE4=Cherokee
TTITLE5=K and J
TTITLE6=Return of the king
TTITLE7=Meeting Sylvia at gate D7
TTITLE8=Everything I love
TTITLE9=Lady Madonna
TTITLE10=Happy days are here again
EXTD=YEAR: 2006
EXTT0=
EXTT1=
EXTT2=
EXTT3=
EXTT4=
EXTT5=
EXTT6=
EXTT7=
EXTT8=
EXTT9=
EXTT10=
PLAYORDER=
